<svg width="17" height="17" viewBox="0 0 17 17" fill="none" xmlns="http://www.w3.org/2000/svg">
<path fill-rule="evenodd" clip-rule="evenodd" d="M2.0769 0.5C0.929889 0.5 0 1.39545 0 2.49997L0.000142612 8.50003C0.000142612 12.9185 3.71942 16.5 8.3078 16.5C12.8962 16.5 16.6155 12.9185 16.6155 8.50003V2.49997C16.6155 1.39545 15.6856 0.5 14.5386 0.5H2.0769ZM3.32292 4.49995C3.32292 4.94179 3.69481 5.30005 4.15365 5.30005H12.4617C12.9205 5.30005 13.2924 4.94179 13.2924 4.49995C13.2924 4.0581 12.9205 3.69999 12.4617 3.69999H4.15365C3.69481 3.69999 3.32292 4.0581 3.32292 4.49995ZM4.87975 10.2121C4.46697 10.5791 4.42979 11.2111 4.79671 11.6239C5.16363 12.0367 5.7957 12.0739 6.20848 11.707L8.31335 9.83597L10.4182 11.707C10.831 12.0739 11.4631 12.0367 11.83 11.6239C12.1969 11.2111 12.1597 10.5791 11.7469 10.2121L8.97771 7.75061C8.59883 7.41382 8.02787 7.41382 7.64898 7.75061L4.87975 10.2121Z" fill="white"/>
</svg>
