<svg width="273" height="87" viewBox="0 0 273 87" fill="none" xmlns="http://www.w3.org/2000/svg">
<path d="M2 28.2139L5.18966 32.5966C8.39797 36.8154 14.8706 45.8264 21.2126 52.257C27.5732 58.9334 33.8966 63.0293 40.4251 54.4279C46.7672 45.8264 53.1092 23.7084 59.6377 23.8313C65.9611 23.7084 72.3217 45.8264 78.6638 52.257C85.1363 58.9334 91.5343 49.9224 97.8763 54.4279C104.33 58.9334 110.747 76.1363 117.089 69.7057C123.506 63.0293 129.959 32.7195 136.301 34.7674C142.699 36.8154 149.172 52.8008 155.514 70.1265C161.875 87.6162 168.198 87.6162 174.727 76.68C181.955 66.2121 185.484 62.1173 193.258 56.3518C201.458 51.0609 206.623 58.9334 212.965 50.0452C219.438 41.3209 225.836 15.107 232.178 10.7243C238.632 6.50552 245.048 23.7084 251.39 26.0431C257.807 28.2139 264.261 15.107 267.432 8.55348L270.603 2" stroke="#8DDD2B" stroke-width="3.82353" stroke-linecap="round"/>
</svg>
