<svg width="16" height="19" viewBox="0 0 16 19" fill="currentColor" xmlns="http://www.w3.org/2000/svg">
<path fill-rule="evenodd" clip-rule="evenodd" d="M3.34346 4.72409V5.07765H1.90855C1.48108 5.07765 1.11827 5.39117 1.0563 5.81413L0.847275 7.24074C0.439092 10.0266 0.439092 12.857 0.847275 15.6429C1.03017 16.8912 2.03676 17.8562 3.29163 17.9863L3.89276 18.0487C6.5464 18.3239 9.22138 18.3239 11.875 18.0487L12.4762 17.9863C13.731 17.8562 14.7376 16.8912 14.9205 15.6429C15.3287 12.857 15.3287 10.0266 14.9205 7.24074L14.7115 5.81413C14.6495 5.39117 14.2867 5.07765 13.8592 5.07765H12.4243V4.7241C12.4243 2.65199 11.0215 0.842751 9.01465 0.326711C8.27288 0.135969 7.49491 0.135969 6.75314 0.326711C4.74632 0.84275 3.34346 2.65198 3.34346 4.72409ZM8.65757 1.71536C8.15004 1.58485 7.61775 1.58485 7.11022 1.71536C5.73713 2.06844 4.77728 3.30634 4.77728 4.72409V5.07765H10.9905V4.7241C10.9905 3.30634 10.0307 2.06844 8.65757 1.71536ZM4.77728 6.51147C4.77728 6.11554 4.45631 5.79456 4.06037 5.79456C3.66443 5.79456 3.34346 6.11554 3.34346 6.51147V8.42324C3.34346 8.81918 3.66443 9.14015 4.06037 9.14015C4.45631 9.14015 4.77728 8.81918 4.77728 8.42324V6.51147ZM12.4243 6.51147C12.4243 6.11554 12.1034 5.79456 11.7074 5.79456C11.3115 5.79456 10.9905 6.11554 10.9905 6.51147V8.42324C10.9905 8.81918 11.3115 9.14015 11.7074 9.14015C12.1034 9.14015 12.4243 8.81918 12.4243 8.42324V6.51147Z" fill="#EC9D40"/>
</svg>
