<svg width="20" height="19" viewBox="0 0 20 19" fill="none" xmlns="http://www.w3.org/2000/svg">
<path d="M17.7174 2.66322H4.5142L3.38609 0.641143C3.25946 0.414175 3.01992 0.273514 2.76002 0.273514H1.3262C0.930256 0.273514 0.609283 0.594486 0.609283 0.990426C0.609283 1.38636 0.930256 1.70734 1.3262 1.70734H2.33905L3.45236 3.70289L6.01993 9.38391L6.02256 9.38971L6.24871 9.89009L3.67085 12.6398C3.48549 12.8375 3.42747 13.1229 3.52089 13.3773C3.61431 13.6317 3.8432 13.8116 4.11246 13.8424L6.46214 14.1109C9.40117 14.4468 12.3689 14.4468 15.3079 14.1109L17.6576 13.8424C18.051 13.7975 18.3334 13.4421 18.2885 13.0487C18.2435 12.6554 17.8882 12.3729 17.4948 12.4179L15.1451 12.6864C12.3143 13.0099 9.45579 13.0099 6.62495 12.6864L5.69247 12.5798L7.58452 10.5616C7.60282 10.5421 7.61982 10.5218 7.63552 10.5009L8.35512 10.5946C9.3635 10.7258 10.3828 10.7515 11.3965 10.6713C13.7609 10.4843 15.9522 9.35926 17.482 7.54689L18.0346 6.89228C18.0531 6.8703 18.0704 6.84722 18.0861 6.82317L19.116 5.25375C19.8459 4.14132 19.0479 2.66322 17.7174 2.66322Z" fill="#FD8B8B"/>
<path d="M5.62767 15.3287C4.83579 15.3287 4.19384 15.9706 4.19384 16.7625C4.19384 17.5544 4.83579 18.1963 5.62767 18.1963C6.41955 18.1963 7.06149 17.5544 7.06149 16.7625C7.06149 15.9706 6.41955 15.3287 5.62767 15.3287Z" fill="#FD8B8B"/>
<path d="M14.7086 16.7625C14.7086 15.9706 15.3505 15.3287 16.1424 15.3287C16.9343 15.3287 17.5762 15.9706 17.5762 16.7625C17.5762 17.5544 16.9343 18.1963 16.1424 18.1963C15.3505 18.1963 14.7086 17.5544 14.7086 16.7625Z" fill="#FD8B8B"/>
</svg>
